HIERARCHY
ROOT joint_Root
{
	OFFSET 0.0 0.0 0.0
	CHANNELS 6 Xposition Yposition Zposition Zrotation Xrotation Yrotation 
	JOINT Hips
	{
		OFFSET -0.726466 93.3139 -2.00062
		CHANNELS 6 Xposition Yposition Zposition Zrotation Xrotation Yrotation 
		JOINT Spine
		{
			OFFSET 15.7357 0.0 0.0
			CHANNELS 6 Xposition Yposition Zposition Zrotation Xrotation Yrotation 
			JOINT Chest
			{
				OFFSET 8.98455 -0.406207 0.0
				CHANNELS 6 Xposition Yposition Zposition Zrotation Xrotation Yrotation 
				JOINT Neck
				{
					OFFSET 16.3773 0.0 0.0
					CHANNELS 6 Xposition Yposition Zposition Zrotation Xrotation Yrotation 
					JOINT Head
					{
						OFFSET 6.45672 0.0 0.0
						CHANNELS 6 Xposition Yposition Zposition Zrotation Xrotation Yrotation 
						End Site
						{
							OFFSET 0.0 0.0 0.0
						}
					}
				}
				JOINT Shoulder_L
				{
					OFFSET 12.9942 -0.242716 4.98039
					CHANNELS 6 Xposition Yposition Zposition Zrotation Xrotation Yrotation 
					JOINT UpperArm_L
					{
						OFFSET 5.34809 0.0 0.0
						CHANNELS 6 Xposition Yposition Zposition Zrotation Xrotation Yrotation 
						JOINT LowerArm_L
						{
							OFFSET 24.3286 1.87007e-05 0.0
							CHANNELS 6 Xposition Yposition Zposition Zrotation Xrotation Yrotation 
							JOINT Hand_L
							{
								OFFSET 22.2916 0.0 0.0
								CHANNELS 6 Xposition Yposition Zposition Zrotation Xrotation Yrotation 
								End Site
								{
									OFFSET 0.0 0.0 0.0
								}
							}
						}
					}
				}
				JOINT Shoulder_R
				{
					OFFSET 12.9945 -0.242716 -4.98039
					CHANNELS 6 Xposition Yposition Zposition Zrotation Xrotation Yrotation 
					JOINT UpperArm_R
					{
						OFFSET -5.34813 0.0 0.0
						CHANNELS 6 Xposition Yposition Zposition Zrotation Xrotation Yrotation 
						JOINT LowerArm_R
						{
							OFFSET -24.3289 0.000322201 0.0
							CHANNELS 6 Xposition Yposition Zposition Zrotation Xrotation Yrotation 
							JOINT Hand_R
							{
								OFFSET -22.2915 -0.000108084 0.0
								CHANNELS 6 Xposition Yposition Zposition Zrotation Xrotation Yrotation 
								End Site
								{
									OFFSET 0.0 0.0 0.0
								}
							}
						}
					}
				}
			}
		}
		JOINT UpperLeg_L
		{
			OFFSET -2.19248 -6.46944 0.0
			CHANNELS 6 Xposition Yposition Zposition Zrotation Xrotation Yrotation 
			JOINT LowerLeg_L
			{
				OFFSET 39.0811 0.0 -1.23785e-05
				CHANNELS 6 Xposition Yposition Zposition Zrotation Xrotation Yrotation 
				JOINT Foot_L
				{
					OFFSET 40.9854 0.0 -1.26872e-05
					CHANNELS 6 Xposition Yposition Zposition Zrotation Xrotation Yrotation 
					JOINT Toes_L
					{
						OFFSET 11.7543 0.0 0.0
						CHANNELS 6 Xposition Yposition Zposition Zrotation Xrotation Yrotation 
						End Site
						{
							OFFSET 0.0 0.0 0.0
						}
					}
				}
			}
		}
		JOINT UpperLeg_R
		{
			OFFSET -2.19251 6.46944 0.0
			CHANNELS 6 Xposition Yposition Zposition Zrotation Xrotation Yrotation 
			JOINT LowerLeg_R
			{
				OFFSET -39.0811 -0.00228153 -0.0401928
				CHANNELS 6 Xposition Yposition Zposition Zrotation Xrotation Yrotation 
				JOINT Foot_R
				{
					OFFSET -40.9854 0.0 0.0
					CHANNELS 6 Xposition Yposition Zposition Zrotation Xrotation Yrotation 
					JOINT Toes_R
					{
						OFFSET -11.7543 0.0 0.0
						CHANNELS 6 Xposition Yposition Zposition Zrotation Xrotation Yrotation 
						End Site
						{
							OFFSET 0.0 0.0 0.0
						}
					}
				}
			}
		}
	}
}
MOTION
Frames:	5
Frame Time:	0.0333333
0.000000 0.000000 0.000000 0.000000 0.000000 -0.000000 1.403740 92.127700 -1.873270 87.684500 -5.414000 3.778660 15.735700 0.000005 -0.000001 92.562700 85.102100 -94.598900 8.984550 -0.406207 -0.000000 2.032940 0.539493 -4.078190 16.377300 -0.000001 -0.000001 3.469000 -3.473370 2.469480 6.456720 -0.000001 -0.000000 0.498529 -2.008160 -13.560200 12.994200 -0.242716 4.980390 -88.428800 -4.751500 -71.677800 5.348090 -0.000007 -0.000001 15.325300 76.890000 -63.057400 24.328600 0.000019 0.000005 13.537800 0.437295 -88.184500 22.291600 -0.000001 0.000005 42.380000 5.606920 -30.476500 12.994500 -0.242716 -4.980390 93.575600 -7.099740 -63.179700 -5.348130 -0.000001 -0.000004 -64.036800 -54.421700 -114.387000 -24.328900 0.000322 -0.000009 -0.608141 -1.354090 -24.153300 -22.291500 -0.000108 -0.000004 22.160300 5.396960 -2.839040 -2.192480 -6.469440 -0.000000 -170.654000 -16.545000 -1.704390 39.081100 -0.000007 -0.000012 -0.176246 0.422425 22.647300 40.985400 -0.000006 -0.000013 -4.595190 0.738281 -65.477000 11.754300 -0.000000 0.000003 -0.000039 -0.000451 -16.595100 -2.192510 6.469440 -0.000001 173.617000 17.080000 178.608000 -39.081100 -0.002282 -0.040193 0.037821 -0.097829 19.424800 -40.985400 0.000008 0.000006 -1.440050 3.917400 -61.848700 -11.754300 -0.000006 -0.000006 -0.006804 -0.077974 -19.747200
0.000000 0.000000 0.000000 0.000000 0.000000 -0.000000 1.356380 92.139100 -1.948270 87.653800 -5.403180 3.833330 15.735700 0.000005 -0.000001 93.159400 85.077600 -95.183600 8.984550 -0.406207 -0.000000 2.078470 0.642609 -4.056320 16.377300 -0.000001 -0.000001 3.565360 -3.610560 2.628420 6.456720 -0.000001 -0.000000 0.403095 -2.088530 -13.617600 12.994200 -0.242716 4.980390 -88.425000 -4.769310 -71.700700 5.348090 -0.000007 -0.000001 15.281700 76.892600 -63.055600 24.328600 0.000019 0.000005 13.511900 0.440130 -88.169100 22.291600 -0.000001 0.000005 42.272900 5.607240 -30.456300 12.994500 -0.242716 -4.980390 93.721800 -7.334440 -62.999100 -5.348130 -0.000001 -0.000004 -64.644700 -54.345200 -118.104000 -24.328900 0.000322 -0.000009 -0.541777 -1.049000 -27.271800 -22.291500 -0.000108 -0.000004 22.120700 5.410100 -3.268600 -2.192480 -6.469440 -0.000000 -170.599000 -16.454600 -1.679410 39.081100 -0.000007 -0.000012 -0.174622 0.419370 22.606600 40.985400 -0.000006 -0.000013 -4.632110 0.664842 -65.406500 11.754300 -0.000000 0.000003 -0.000033 -0.000393 -16.592900 -2.192510 6.469440 -0.000001 173.673000 17.140700 178.601000 -39.081100 -0.002282 -0.040193 0.038255 -0.098950 19.444600 -40.985400 0.000008 0.000006 -1.359980 3.995920 -61.777500 -11.754300 -0.000006 -0.000006 -0.006945 -0.079194 -19.797000
0.000000 0.000000 0.000000 0.000000 0.000000 -0.000000 1.307770 92.141600 -2.045420 87.614600 -5.335620 3.831550 15.735700 0.000005 -0.000001 93.717100 85.072200 -95.732700 8.984550 -0.406207 -0.000000 2.085170 0.738361 -4.040710 16.377300 -0.000001 -0.000001 3.639160 -3.745940 2.782780 6.456720 -0.000001 -0.000000 0.433350 -2.184210 -13.641400 12.994200 -0.242716 4.980390 -88.425900 -4.789110 -71.780600 5.348090 -0.000007 -0.000001 15.294500 76.894400 -63.075800 24.328600 0.000019 0.000005 13.686000 0.450594 -88.150300 22.291600 -0.000001 0.000005 42.318900 5.608800 -30.358000 12.994500 -0.242716 -4.980390 93.865300 -7.530810 -62.727700 -5.348130 -0.000001 -0.000004 -64.801600 -54.267400 -121.300000 -24.328900 0.000322 -0.000009 -0.504871 -0.847598 -30.726400 -22.291500 -0.000108 -0.000004 22.102900 5.423230 -3.707930 -2.192480 -6.469440 -0.000000 -170.530000 -16.425300 -1.786420 39.081100 -0.000007 -0.000012 -0.177182 0.424601 22.650600 40.985400 -0.000006 -0.000013 -4.649690 0.716752 -65.339800 11.754300 -0.000000 0.000003 -0.000036 -0.000420 -16.593900 -2.192510 6.469440 -0.000001 173.771000 17.168400 178.547000 -39.081100 -0.002282 -0.040193 0.038479 -0.099533 19.454300 -40.985400 0.000008 0.000006 -1.272670 3.935930 -61.777000 -11.754300 -0.000006 -0.000006 -0.006731 -0.077337 -19.721200
0.000000 0.000000 0.000000 0.000000 0.000000 -0.000000 1.256830 92.151000 -2.135830 87.547900 -5.253760 3.824470 15.735700 0.000005 -0.000001 93.990200 85.060200 -95.999700 8.984550 -0.406207 -0.000000 2.106800 0.786182 -4.029520 16.377300 -0.000001 -0.000001 3.739170 -3.915690 2.959990 6.456720 -0.000001 -0.000000 0.424114 -2.243540 -13.658400 12.994200 -0.242716 4.980390 -88.418900 -4.831280 -71.854300 5.348090 -0.000007 -0.000001 15.077700 76.890600 -62.899700 24.328600 0.000019 0.000005 13.619000 0.462288 -88.092700 22.291600 -0.000001 0.000005 42.255800 5.605610 -30.557900 12.994500 -0.242716 -4.980390 94.003000 -7.723600 -62.493700 -5.348130 -0.000001 -0.000004 -64.606700 -54.224600 -124.063000 -24.328900 0.000322 -0.000009 -0.457068 -0.674355 -34.069500 -22.291500 -0.000108 -0.000004 22.367100 5.440710 -4.310760 -2.192480 -6.469440 -0.000000 -170.430000 -16.469500 -1.886990 39.081100 -0.000007 -0.000012 -0.176134 0.421602 22.674100 40.985400 -0.000006 -0.000013 -4.640370 0.864547 -65.255500 11.754300 -0.000000 0.000003 -0.000037 -0.000436 -16.594500 -2.192510 6.469440 -0.000001 173.908000 17.202200 178.501000 -39.081100 -0.002282 -0.040193 0.038961 -0.101027 19.430900 -40.985400 0.000008 0.000006 -1.229210 3.832660 -61.713500 -11.754300 -0.000006 -0.000006 -0.006743 -0.077443 -19.725500
0.000000 0.000000 0.000000 0.000000 0.000000 -0.000000 1.217250 92.169500 -2.221600 87.527100 -5.142200 3.833680 15.735700 0.000005 -0.000001 94.179300 85.067000 -96.185400 8.984550 -0.406207 -0.000000 2.091360 0.817795 -4.023140 16.377300 -0.000001 -0.000001 3.902330 -4.149840 3.082520 6.456720 -0.000001 -0.000000 0.512411 -2.418460 -13.684900 12.994200 -0.242716 4.980390 -88.432400 -4.836940 -72.018500 5.348090 -0.000007 -0.000001 15.021000 77.001200 -62.841600 24.328600 0.000019 0.000005 13.563600 0.468050 -88.060700 22.291600 -0.000001 0.000005 42.333800 5.605750 -30.548800 12.994500 -0.242716 -4.980390 94.144300 -7.907540 -62.224700 -5.348130 -0.000001 -0.000004 -64.562300 -53.712100 -126.892000 -24.328900 0.000322 -0.000009 -0.221285 -0.292563 -36.962300 -22.291500 -0.000108 -0.000004 22.441700 5.454490 -4.800890 -2.192480 -6.469440 -0.000000 -170.392000 -16.403600 -1.917930 39.081100 -0.000007 -0.000012 -0.176654 0.424662 22.586900 40.985400 -0.000006 -0.000013 -4.651740 0.903398 -65.134100 11.754300 -0.000000 0.000003 -0.000039 -0.000452 -16.595200 -2.192510 6.469440 -0.000001 173.973000 17.203100 178.488000 -39.081100 -0.002282 -0.040193 0.037989 -0.098508 19.387700 -40.985400 0.000008 0.000006 -1.230570 3.758390 -61.603600 -11.754300 -0.000006 -0.000006 -0.006691 -0.076988 -19.707000
